<svg width="21" height="21" viewBox="0 0 21 21" fill="none" xmlns="http://www.w3.org/2000/svg">
<g clip-path="url(#clip0_1599_53380)">
<path d="M0.247139 10.406L5.40714 5.24599C5.56468 5.08832 5.7784 4.99968 6.00129 4.99959C6.22418 4.9995 6.43797 5.08795 6.59564 5.24549C6.75331 5.40303 6.84195 5.61675 6.84204 5.83963C6.84213 6.06252 6.75368 6.27632 6.59614 6.43399L2.02914 11L6.59414 15.566C6.67214 15.644 6.73402 15.7366 6.77624 15.8385C6.81845 15.9404 6.84019 16.0497 6.84019 16.16C6.84019 16.2703 6.81845 16.3795 6.77624 16.4815C6.73402 16.5834 6.67214 16.676 6.59414 16.754C6.51613 16.832 6.42353 16.8939 6.32161 16.9361C6.21969 16.9783 6.11046 17 6.00014 17C5.88983 17 5.78059 16.9783 5.67867 16.9361C5.57675 16.8939 5.48415 16.832 5.40614 16.754L0.24614 11.594C0.168129 11.516 0.106253 11.4234 0.0640335 11.3215C0.0218142 11.2195 8.39233e-05 11.1103 8.39233e-05 11C8.39233e-05 10.8897 0.0218142 10.7804 0.0640335 10.6785C0.106253 10.5766 0.169129 10.484 0.247139 10.406Z" fill="currentColor"/>
<path fill-rule="evenodd" clip-rule="evenodd" d="M1.25024 11C1.25024 10.5858 1.58603 10.25 2.00024 10.25H16.0002C16.4145 10.25 16.7502 10.5858 16.7502 11C16.7502 11.4142 16.4145 11.75 16.0002 11.75H2.00024C1.58603 11.75 1.25024 11.4142 1.25024 11Z" fill="currentColor"/>
</g>
<defs>
<clipPath id="clip0_1599_53380">
<rect width="21" height="21" fill="white"/>
</clipPath>
</defs>
</svg>