<svg width="21" height="21" viewBox="0 0 21 21" fill="none" xmlns="http://www.w3.org/2000/svg" xlink:href="data:image/png;base64;"> 
  <g clip-path="url(#clip0_1599_53375)">
  <path d="M7.24689 10.406L12.4069 5.24599C12.5644 5.08832 12.7782 4.99968 13.001 4.99959C13.2239 4.9995 13.4377 5.08795 13.5954 5.24549C13.7531 5.40303 13.8417 5.61675 13.8418 5.83963C13.8419 6.06252 13.7534 6.27632 13.5959 6.43399L9.0289 11L13.5939 15.566C13.6719 15.644 13.7338 15.7366 13.776 15.8385C13.8182 15.9404 13.8399 16.0497 13.8399 16.16C13.8399 16.2703 13.8182 16.3795 13.776 16.4815C13.7338 16.5834 13.6719 16.676 13.5939 16.754C13.5159 16.832 13.4233 16.8939 13.3214 16.9361C13.2194 16.9783 13.1102 17 12.9999 17C12.8896 17 12.7803 16.9783 12.6784 16.9361C12.5765 16.8939 12.4839 16.832 12.4059 16.754L7.2459 11.594C7.16789 11.516 7.10601 11.4234 7.06379 11.3215C7.02157 11.2195 6.99984 11.1103 6.99984 11C6.99984 10.8897 7.02157 10.7804 7.06379 10.6785C7.10601 10.5766 7.16888 10.484 7.24689 10.406Z" fill="currentColor"/>
  </g>
  <defs>
  <clipPath id="clip0_1599_53375">
  <rect width="21" height="21" fill="white"/>
  </clipPath>
  </defs>
</svg>